<svg xmlns="http://www.w3.org/2000/svg" width="176.82" height="176.37" viewBox="0 0 176.82 176.37">
  <defs>
    <style>
      .b1356c66-cf2f-4d3c-9d5b-acde10d6cf61 {
        fill: #0089F2;
      }
    </style>
  </defs>
  <title>sebastianaro_3</title>
  <g id="a1f13f36-a288-4098-9ebb-7db9f5431789" data-name="Layer 2">
    <g id="e7fba56e-bd01-4357-bc4e-ef36bb16b43a" data-name="Layer 1">
      <g>
        <path class="b1356c66-cf2f-4d3c-9d5b-acde10d6cf61" d="M170.06,9l0,86h0v3.58h0v2.39h0l6.44-6.62,0-85.3a9.15,9.15,0,0,0-8.74-9h-154L7.45,6.45H167.6A2.61,2.61,0,0,1,170.06,9Z"/>
        <polygon class="b1356c66-cf2f-4d3c-9d5b-acde10d6cf61" points="156.1 169.28 137.46 169.28 28.62 169.28 14.11 169.28 7.21 176.37 9.98 176.37 28.62 176.37 137.46 176.37 152 176.37 158.9 169.28 156.1 169.28"/>
        <path class="b1356c66-cf2f-4d3c-9d5b-acde10d6cf61" d="M174.41,115.56a8.72,8.72,0,0,0-6.48-2.88H14.45l-6.9,7.08H167.86a1.73,1.73,0,0,1,1.25.49,2.09,2.09,0,0,1,.63,1.49v36.36h0l7.08-7.27V122A9.37,9.37,0,0,0,174.41,115.56Z"/>
        <path class="b1356c66-cf2f-4d3c-9d5b-acde10d6cf61" d="M9.16,56.2A9.4,9.4,0,0,0,0,65.52V89.43H0V101.5l7.09-7.27,0-28.71a2.33,2.33,0,0,1,2.2-2.24H151.82l6.91-7.09Z"/>
      </g>
    </g>
  </g>
</svg>
